<?xml version="1.0" encoding="UTF-8"?>
<svg width="1000px" height="1000px" viewBox="0 0 1000 1000" version="1.1" xmlns="http://www.w3.org/2000/svg" xmlns:xlink="http://www.w3.org/1999/xlink">
    <title>Icono 2</title>
    <defs>
        <radialGradient cx="50%" cy="0%" fx="50%" fy="0%" r="97.0115822%" id="radialGradient-1">
            <stop stop-color="#0E76E0" offset="0%"></stop>
            <stop stop-color="#41A8FF" offset="100%"></stop>
        </radialGradient>
        <radialGradient cx="80.9164057%" cy="90.1980061%" fx="80.9164057%" fy="90.1980061%" r="109.619082%" id="radialGradient-2">
            <stop stop-color="#0E76E0" offset="0%"></stop>
            <stop stop-color="#41A8FF" stop-opacity="0" offset="100%"></stop>
        </radialGradient>
        <radialGradient cx="50%" cy="0%" fx="50%" fy="0%" r="97.0115822%" gradientTransform="translate(0.500000,0.000000),scale(0.111639,1.000000),rotate(90.000000),translate(-0.500000,-0.000000)" id="radialGradient-3">
            <stop stop-color="#0E76E0" offset="0%"></stop>
            <stop stop-color="#41A8FF" offset="100%"></stop>
        </radialGradient>
        <linearGradient x1="9.57041423e-15%" y1="50.6231639%" x2="52.7952714%" y2="49.3768361%" id="linearGradient-4">
            <stop stop-color="#73C068" offset="0%"></stop>
            <stop stop-color="#3DA634" offset="100%"></stop>
        </linearGradient>
        <path d="M123.802996,906 C439.311204,906 712.110113,944.334479 842.000151,999.997787 L0.00933172408,1000 L0.000910634455,907.998434 C40.3487731,906.682789 81.6955293,906 123.802996,906 Z" id="path-5"></path>
    </defs>
    <g id="Icono-2" stroke="none" stroke-width="1" fill="none" fill-rule="evenodd">
        <rect id="Rectangle" fill="url(#radialGradient-1)" x="0" y="0" width="1000" height="1000"></rect>
        <g id="Group-2" transform="translate(68.831019, 42.000000)">
            <path d="M441.337962,49.4564574 C646.535794,49.4564574 812.881505,215.802168 812.881505,421 C812.881505,626.197832 646.535794,792.543543 441.337962,792.543543 C236.140129,792.543543 69.7944193,626.197832 69.7944193,421 C69.7944193,215.802168 236.140129,49.4564574 441.337962,49.4564574 Z M441.337962,65.1924192 C244.830861,65.1924192 85.5303812,224.492899 85.5303812,421 C85.5303812,617.507101 244.830861,776.807581 441.337962,776.807581 C637.845063,776.807581 797.145543,617.507101 797.145543,421 C797.145543,224.492899 637.845063,65.1924192 441.337962,65.1924192 Z" id="Oval" fill="url(#radialGradient-2)" fill-rule="nonzero"></path>
            <path d="M441.337962,0 C673.849842,0 862.337962,188.48812 862.337962,421 C862.337962,653.51188 673.849842,842 441.337962,842 C208.826082,842 20.337962,653.51188 20.337962,421 C20.337962,188.48812 208.826082,0 441.337962,0 Z M441.337962,15.7359618 C217.516814,15.7359618 36.0739238,197.178852 36.0739238,421 C36.0739238,644.821148 217.516814,826.264038 441.337962,826.264038 C665.15911,826.264038 846.602,644.821148 846.602,421 C846.602,197.178852 665.15911,15.7359618 441.337962,15.7359618 Z" id="Oval" fill="url(#radialGradient-2)" fill-rule="nonzero"></path>
            <g id="Group" transform="translate(0.000000, 282.797167)" fill="#FFFFFF">
                <path d="M656.570958,307.366075 L549.320529,180.199048 L747.021747,53.0250786 L656.570958,307.366075 Z M458.217192,207.220783 L308.318586,29.4743436 L729.29535,29.4743436 L458.217192,207.220783 Z M803.308551,1.7028726 L787.420716,1.7028726 L277.433628,1.7028726 L233.025654,126.57904 L256.68399,140.70601 L287.857041,53.0250786 L390.185592,174.350413 L331.897089,211.833742 C336.44757,218.640373 342.133068,227.34217 348.797388,236.491726 L409.619721,197.397853 L449.352258,244.506265 L523.190841,197.012572 L630.521103,324.283729 L336.742605,324.283729 C336.65583,324.266374 336.582939,324.228193 336.496164,324.214309 C319.262649,320.791903 175.105077,292.322761 134.355537,283.509892 C133.675221,309.073807 161.873625,331.086889 182.907885,341.111137 C183.171681,341.236093 183.421593,341.354107 183.681918,341.472121 C185.813112,342.464827 187.892241,343.3777 189.822117,344.10661 C210.908442,352.086439 240.918708,353.034022 240.918708,353.034022 L322.150521,353.034022 L356.603667,353.034022 L662.034312,353.034022 L669.014493,353.034022 L680.795601,353.034022 L803.308551,1.7028726 Z" id="Fill-33"></path>
                <path d="M288.789005,239.630898 C294.488387,242.480589 314.148131,254.163975 323.266448,261.7134 C315.855863,239.488587 297.889967,217.246419 289.358249,206.580036 C280.239932,195.181272 42.3202365,29.350776 0.848728541,0 C-0.133564459,16.813524 -0.841648459,41.763072 2.14341154,62.970882 C8.12741554,105.428154 41.0429085,125.664084 61.9799805,135.344703 C82.1013675,144.650454 283.089623,236.781207 288.789005,239.630898" id="Fill-35"></path>
                <path d="M206.540883,279.899705 C227.054493,284.457128 324.121008,305.7413 341.784927,309.916913 C336.168849,302.926319 334.204263,299.611514 325.82874,291.871184 C313.485864,280.475891 280.247568,258.775199 275.495769,256.34897 C258.980751,247.921382 105.243219,177.62669 59.7071697,160.705565 C56.0938587,218.737214 104.913474,256.539875 141.192366,265.276382 C150.879927,268.122602 186.023802,275.342282 206.540883,279.899705" id="Fill-37"></path>
            </g>
        </g>
        <g id="Combined-Shape-Copy">
            <use fill="url(#radialGradient-3)" xlink:href="#path-5"></use>
            <use fill="url(#linearGradient-4)" xlink:href="#path-5"></use>
        </g>
    </g>
</svg>