<?xml version="1.0" encoding="UTF-8"?>
<svg width="1000px" height="1000px" viewBox="0 0 1000 1000" version="1.1" xmlns="http://www.w3.org/2000/svg" xmlns:xlink="http://www.w3.org/1999/xlink">
    <title>Icono</title>
    <defs>
        <radialGradient cx="50%" cy="0%" fx="50%" fy="0%" r="97.0115822%" id="radialGradient-1">
            <stop stop-color="#0E76E0" offset="0%"></stop>
            <stop stop-color="#41A8FF" offset="100%"></stop>
        </radialGradient>
        <radialGradient cx="80.9164057%" cy="90.1980061%" fx="80.9164057%" fy="90.1980061%" r="109.619082%" id="radialGradient-2">
            <stop stop-color="#0E76E0" offset="0%"></stop>
            <stop stop-color="#41A8FF" stop-opacity="0" offset="100%"></stop>
        </radialGradient>
        <radialGradient cx="50%" cy="0%" fx="50%" fy="0%" r="97.0115822%" gradientTransform="translate(0.500000,0.000000),scale(0.202492,1.000000),rotate(90.000000),translate(-0.500000,-0.000000)" id="radialGradient-3">
            <stop stop-color="#0E76E0" offset="0%"></stop>
            <stop stop-color="#41A8FF" offset="100%"></stop>
        </radialGradient>
        <linearGradient x1="-2.6454533e-15%" y1="62.3448947%" x2="64.1055702%" y2="46.7173069%" id="linearGradient-4">
            <stop stop-color="#B6F2AE" offset="0%"></stop>
            <stop stop-color="#3DA634" offset="100%"></stop>
        </linearGradient>
        <path d="M-116.852247,185.107978 C57.0953642,185.107978 207.496273,223.442428 279.107978,279.105701 L-185.102834,279.107978 L-185.107437,187.106411 C-162.862649,185.790767 -140.067147,185.107978 -116.852247,185.107978 Z" id="path-5"></path>
    </defs>
    <g id="Icono" stroke="none" stroke-width="1" fill="none" fill-rule="evenodd">
        <rect fill="#FFFFFF" x="0" y="0" width="1000" height="1000"></rect>
        <path d="M1000,0 L1000,1000 L0.00943781552,1000 L963.000294,999.995542 C814.444234,884.523714 502.442147,805 141.593102,805 C93.4345795,805 46.1460837,806.416419 2.53958913e-05,809.145676 L2.53958913e-05,809.145676 L0.00943781552,1000 L0,1000 L0,0 L1000,0 Z" id="Combined-Shape" fill="url(#radialGradient-1)"></path>
        <path d="M539.683686,38.1422792 C744.881519,38.1422792 911.227229,204.487989 911.227229,409.685822 C911.227229,614.883654 744.881519,781.229364 539.683686,781.229364 C334.485854,781.229364 168.140144,614.883654 168.140144,409.685822 C168.140144,204.487989 334.485854,38.1422792 539.683686,38.1422792 Z M539.683686,53.878241 C343.176586,53.878241 183.876106,213.178721 183.876106,409.685822 C183.876106,606.192923 343.176586,765.493403 539.683686,765.493403 C736.190787,765.493403 895.491267,606.192923 895.491267,409.685822 C895.491267,213.178721 736.190787,53.878241 539.683686,53.878241 Z" id="Oval" fill="url(#radialGradient-1)" fill-rule="nonzero"></path>
        <path d="M539.683686,-11.3141781 C772.195566,-11.3141781 960.683686,177.173942 960.683686,409.685822 C960.683686,642.197702 772.195566,830.685822 539.683686,830.685822 C307.171807,830.685822 118.683686,642.197702 118.683686,409.685822 C118.683686,177.173942 307.171807,-11.3141781 539.683686,-11.3141781 Z M539.683686,4.42178366 C315.862539,4.42178366 134.419648,185.864674 134.419648,409.685822 C134.419648,633.50697 315.862539,814.94986 539.683686,814.94986 C763.504834,814.94986 944.947725,633.50697 944.947725,409.685822 C944.947725,185.864674 763.504834,4.42178366 539.683686,4.42178366 Z" id="Oval" fill="url(#radialGradient-2)" fill-rule="nonzero"></path>
        <g id="Group" transform="translate(98.345724, 271.482989)" fill="#FFFFFF">
            <path d="M656.570958,307.366075 L549.320529,180.199048 L747.021747,53.0250786 L656.570958,307.366075 Z M458.217192,207.220783 L308.318586,29.4743436 L729.29535,29.4743436 L458.217192,207.220783 Z M803.308551,1.7028726 L787.420716,1.7028726 L277.433628,1.7028726 L233.025654,126.57904 L256.68399,140.70601 L287.857041,53.0250786 L390.185592,174.350413 L331.897089,211.833742 C336.44757,218.640373 342.133068,227.34217 348.797388,236.491726 L409.619721,197.397853 L449.352258,244.506265 L523.190841,197.012572 L630.521103,324.283729 L336.742605,324.283729 C336.65583,324.266374 336.582939,324.228193 336.496164,324.214309 C319.262649,320.791903 175.105077,292.322761 134.355537,283.509892 C133.675221,309.073807 161.873625,331.086889 182.907885,341.111137 C183.171681,341.236093 183.421593,341.354107 183.681918,341.472121 C185.813112,342.464827 187.892241,343.3777 189.822117,344.10661 C210.908442,352.086439 240.918708,353.034022 240.918708,353.034022 L322.150521,353.034022 L356.603667,353.034022 L662.034312,353.034022 L669.014493,353.034022 L680.795601,353.034022 L803.308551,1.7028726 Z" id="Fill-33"></path>
            <path d="M288.789005,239.630898 C294.488387,242.480589 314.148131,254.163975 323.266448,261.7134 C315.855863,239.488587 297.889967,217.246419 289.358249,206.580036 C280.239932,195.181272 42.3202365,29.350776 0.848728541,0 C-0.133564459,16.813524 -0.841648459,41.763072 2.14341154,62.970882 C8.12741554,105.428154 41.0429085,125.664084 61.9799805,135.344703 C82.1013675,144.650454 283.089623,236.781207 288.789005,239.630898" id="Fill-35"></path>
            <path d="M206.540883,279.899705 C227.054493,284.457128 324.121008,305.7413 341.784927,309.916913 C336.168849,302.926319 334.204263,299.611514 325.82874,291.871184 C313.485864,280.475891 280.247568,258.775199 275.495769,256.34897 C258.980751,247.921382 105.243219,177.62669 59.7071697,160.705565 C56.0938587,218.737214 104.913474,256.539875 141.192366,265.276382 C150.879927,268.122602 186.023802,275.342282 206.540883,279.899705" id="Fill-37"></path>
        </g>
        <g id="PageGear-Mailer®" transform="translate(56.040776, 884.522000)" fill="#8D8D8D" fill-rule="nonzero">
            <path d="M17.75,36.92 L9.798,36.92 L9.798,50.978 L0,50.978 L0,2.698 L17.75,2.698 C29.2046667,2.698 34.932,8.28333333 34.932,19.454 C34.932,25.0866667 33.4765,29.4058333 30.5655,32.4115 C27.6545,35.4171667 23.3826667,36.92 17.75,36.92 Z M9.798,28.542 L17.679,28.542 C22.5543333,28.542 24.992,25.5126667 24.992,19.454 C24.992,16.472 24.4003333,14.3301667 23.217,13.0285 C22.0336667,11.7268333 20.1876667,11.076 17.679,11.076 L9.798,11.076 L9.798,28.542 Z" id="Shape"></path>
            <path d="M67.805,26.554 L67.805,41.322 C67.8996667,42.458 68.089,43.2508333 68.373,43.7005 C68.657,44.1501667 69.2486667,44.4696667 70.148,44.659 L69.864,51.83 C67.45,51.83 65.5211667,51.6643333 64.0775,51.333 C62.6338333,51.0016667 61.1783333,50.339 59.711,49.345 C56.303,51.0016667 52.824,51.83 49.274,51.83 C41.9373333,51.83 38.269,47.9486667 38.269,40.186 C38.269,36.3993333 39.2866667,33.7131667 41.322,32.1275 C43.3573333,30.5418333 46.4813333,29.607 50.694,29.323 L58.291,28.755 L58.291,26.554 C58.291,25.0866667 57.9596667,24.0808333 57.297,23.5365 C56.6343333,22.9921667 55.5693333,22.72 54.102,22.72 L40.754,23.288 L40.47,16.685 C45.5346667,15.3123333 50.3508333,14.626 54.9185,14.626 C59.4861667,14.626 62.7758333,15.5726667 64.7875,17.466 C66.7991667,19.3593333 67.805,22.3886667 67.805,26.554 Z M51.83,35.926 C49.1793333,36.1626667 47.854,37.5826667 47.854,40.186 C47.854,42.7893333 49.0136667,44.091 51.333,44.091 C53.1316667,44.091 55.096,43.807 57.226,43.239 L58.291,42.955 L58.291,35.358 L51.83,35.926 Z" id="Shape"></path>
            <path d="M109.056,55.38 C109.056,59.4506667 107.494,62.4563333 104.37,64.397 C101.246,66.3376667 97.0215,67.308 91.6965,67.308 C86.3715,67.308 82.2771667,66.598 79.4135,65.178 C76.5498333,63.758 75.118,61.1783333 75.118,57.439 C75.118,54.457 76.822,51.6406667 80.23,48.99 C78.4786667,47.8066667 77.603,46.008 77.603,43.594 C77.603,42.6473333 78.313,41.0853333 79.733,38.908 L80.372,37.914 C77.1533333,35.5946667 75.544,32.1748333 75.544,27.6545 C75.544,23.1341667 76.9048333,19.8563333 79.6265,17.821 C82.3481667,15.7856667 85.9573333,14.768 90.454,14.768 C92.4893333,14.768 94.501,15.0046667 96.489,15.478 L97.625,15.691 L109.056,15.336 L109.056,22.933 L103.731,22.507 C104.772333,24.1163333 105.293,25.7256667 105.293,27.335 C105.293,32.0683333 104.086,35.3343333 101.672,37.133 C99.258,38.9316667 95.4713333,39.831 90.312,39.831 C89.2233333,39.831 88.253,39.7363333 87.401,39.547 C86.9276667,40.7776667 86.691,41.7835 86.691,42.5645 C86.691,43.3455 87.0933333,43.878 87.898,44.162 C88.7026667,44.446 90.596,44.6116667 93.578,44.659 C99.542,44.7063333 103.612667,45.4991667 105.79,47.0375 C107.967333,48.5758333 109.056,51.3566667 109.056,55.38 Z M84.49,56.445 C84.49,58.4803333 86.9868333,59.498 91.9805,59.498 C96.9741667,59.498 99.471,58.3146667 99.471,55.948 C99.471,54.67 99.045,53.8535 98.193,53.4985 C97.341,53.1435 95.5423333,52.9423333 92.797,52.895 L86.407,52.398 C85.129,53.676 84.49,55.025 84.49,56.445 Z M85.058,27.406 C85.058,30.8613333 86.8685,32.589 90.4895,32.589 C94.1105,32.589 95.921,30.8495 95.921,27.3705 C95.921,23.8915 94.1105,22.152 90.4895,22.152 C86.8685,22.152 85.058,23.9033333 85.058,27.406 Z" id="Shape"></path>
            <path d="M122.617,37.275 C122.664333,39.4523333 123.244167,41.0261667 124.3565,41.9965 C125.468833,42.9668333 127.066333,43.452 129.149,43.452 C133.551,43.452 137.479667,43.31 140.935,43.026 L142.923,42.813 L143.065,49.842 C137.621667,51.1673333 132.699,51.83 128.297,51.83 C122.948333,51.83 119.067,50.41 116.653,47.57 C114.239,44.73 113.032,40.115 113.032,33.725 C113.032,20.9923333 118.262333,14.626 128.723,14.626 C139.041667,14.626 144.201,19.9746667 144.201,30.672 L143.491,37.275 L122.617,37.275 Z M134.829,30.033 C134.829,27.193 134.379333,25.2168333 133.48,24.1045 C132.580667,22.9921667 131.006833,22.436 128.7585,22.436 C126.510167,22.436 124.9245,23.0158333 124.0015,24.1755 C123.0785,25.3351667 122.593333,27.2876667 122.546,30.033 L134.829,30.033 Z" id="Shape"></path>
            <path d="M171.962,33.654 L171.962,25.134 L186.02,25.134 L186.02,50.197 C179.251333,51.2856667 173.760667,51.83 169.548,51.83 C162.022,51.83 156.850833,49.8183333 154.0345,45.795 C151.218167,41.7716667 149.81,35.3816667 149.81,26.625 C149.81,17.8683333 151.277333,11.5493333 154.212,7.668 C157.146667,3.78666667 162.140333,1.846 169.193,1.846 C173.595,1.846 178.352,2.343 183.464,3.337 L186.02,3.834 L185.736,11.431 C180.056,10.8156667 175.4055,10.508 171.7845,10.508 C168.1635,10.508 165.619333,10.934 164.152,11.786 C162.684667,12.638 161.607833,14.2118333 160.9215,16.5075 C160.235167,18.8031667 159.892,22.7318333 159.892,28.2935 C159.892,33.8551667 160.578333,37.7483333 161.951,39.973 C163.323667,42.1976667 166.163667,43.31 170.471,43.31 L176.364,43.026 L176.364,33.654 L171.962,33.654 Z" id="Path"></path>
            <path d="M202.208,37.275 C202.255333,39.4523333 202.835167,41.0261667 203.9475,41.9965 C205.059833,42.9668333 206.657333,43.452 208.74,43.452 C213.142,43.452 217.070667,43.31 220.526,43.026 L222.514,42.813 L222.656,49.842 C217.212667,51.1673333 212.29,51.83 207.888,51.83 C202.539333,51.83 198.658,50.41 196.244,47.57 C193.83,44.73 192.623,40.115 192.623,33.725 C192.623,20.9923333 197.853333,14.626 208.314,14.626 C218.632667,14.626 223.792,19.9746667 223.792,30.672 L223.082,37.275 L202.208,37.275 Z M214.42,30.033 C214.42,27.193 213.970333,25.2168333 213.071,24.1045 C212.171667,22.9921667 210.597833,22.436 208.3495,22.436 C206.101167,22.436 204.5155,23.0158333 203.5925,24.1755 C202.6695,25.3351667 202.184333,27.2876667 202.137,30.033 L214.42,30.033 Z" id="Shape"></path>
            <path d="M257.801,26.554 L257.801,41.322 C257.895667,42.458 258.085,43.2508333 258.369,43.7005 C258.653,44.1501667 259.244667,44.4696667 260.144,44.659 L259.86,51.83 C257.446,51.83 255.517167,51.6643333 254.0735,51.333 C252.629833,51.0016667 251.174333,50.339 249.707,49.345 C246.299,51.0016667 242.82,51.83 239.27,51.83 C231.933333,51.83 228.265,47.9486667 228.265,40.186 C228.265,36.3993333 229.282667,33.7131667 231.318,32.1275 C233.353333,30.5418333 236.477333,29.607 240.69,29.323 L248.287,28.755 L248.287,26.554 C248.287,25.0866667 247.955667,24.0808333 247.293,23.5365 C246.630333,22.9921667 245.565333,22.72 244.098,22.72 L230.75,23.288 L230.466,16.685 C235.530667,15.3123333 240.346833,14.626 244.9145,14.626 C249.482167,14.626 252.771833,15.5726667 254.7835,17.466 C256.795167,19.3593333 257.801,22.3886667 257.801,26.554 Z M241.826,35.926 C239.175333,36.1626667 237.85,37.5826667 237.85,40.186 C237.85,42.7893333 239.009667,44.091 241.329,44.091 C243.127667,44.091 245.092,43.807 247.222,43.239 L248.287,42.955 L248.287,35.358 L241.826,35.926 Z" id="Shape"></path>
            <path d="M266.889,50.978 L266.889,15.478 L276.332,15.478 L276.332,19.241 C280.308,16.8743333 284.094667,15.336 287.692,14.626 L287.692,24.211 C283.858,25.0156667 280.568333,25.844 277.823,26.696 L276.403,27.193 L276.403,50.978 L266.889,50.978 Z" id="Path"></path>
            <polygon id="Path" points="309.773 50.978 309.773 2.698 326.458 2.698 334.978 37.914 343.498 2.698 360.183 2.698 360.183 50.978 350.385 50.978 350.385 13.632 349.32 13.632 339.877 48.848 330.079 48.848 320.636 13.632 319.571 13.632 319.571 50.978"></polygon>
            <path d="M397.032,26.554 L397.032,41.322 C397.126667,42.458 397.316,43.2508333 397.6,43.7005 C397.884,44.1501667 398.475667,44.4696667 399.375,44.659 L399.091,51.83 C396.677,51.83 394.748167,51.6643333 393.3045,51.333 C391.860833,51.0016667 390.405333,50.339 388.938,49.345 C385.53,51.0016667 382.051,51.83 378.501,51.83 C371.164333,51.83 367.496,47.9486667 367.496,40.186 C367.496,36.3993333 368.513667,33.7131667 370.549,32.1275 C372.584333,30.5418333 375.708333,29.607 379.921,29.323 L387.518,28.755 L387.518,26.554 C387.518,25.0866667 387.186667,24.0808333 386.524,23.5365 C385.861333,22.9921667 384.796333,22.72 383.329,22.72 L369.981,23.288 L369.697,16.685 C374.761667,15.3123333 379.577833,14.626 384.1455,14.626 C388.713167,14.626 392.002833,15.5726667 394.0145,17.466 C396.026167,19.3593333 397.032,22.3886667 397.032,26.554 Z M381.057,35.926 C378.406333,36.1626667 377.081,37.5826667 377.081,40.186 C377.081,42.7893333 378.240667,44.091 380.56,44.091 C382.358667,44.091 384.323,43.807 386.453,43.239 L387.518,42.955 L387.518,35.358 L381.057,35.926 Z" id="Shape"></path>
            <path d="M406.12,50.978 L406.12,15.478 L415.634,15.478 L415.634,50.978 L406.12,50.978 Z M406.12,10.934 L406.12,1.278 L415.634,1.278 L415.634,10.934 L406.12,10.934 Z" id="Shape"></path>
            <polygon id="Path" points="424.864 50.978 424.864 1.278 434.378 1.278 434.378 50.978"></polygon>
            <path d="M451.418,37.275 C451.465333,39.4523333 452.045167,41.0261667 453.1575,41.9965 C454.269833,42.9668333 455.867333,43.452 457.95,43.452 C462.352,43.452 466.280667,43.31 469.736,43.026 L471.724,42.813 L471.866,49.842 C466.422667,51.1673333 461.5,51.83 457.098,51.83 C451.749333,51.83 447.868,50.41 445.454,47.57 C443.04,44.73 441.833,40.115 441.833,33.725 C441.833,20.9923333 447.063333,14.626 457.524,14.626 C467.842667,14.626 473.002,19.9746667 473.002,30.672 L472.292,37.275 L451.418,37.275 Z M463.63,30.033 C463.63,27.193 463.180333,25.2168333 462.281,24.1045 C461.381667,22.9921667 459.807833,22.436 457.5595,22.436 C455.311167,22.436 453.7255,23.0158333 452.8025,24.1755 C451.8795,25.3351667 451.394333,27.2876667 451.347,30.033 L463.63,30.033 Z" id="Shape"></path>
            <path d="M479.818,50.978 L479.818,15.478 L489.261,15.478 L489.261,19.241 C493.237,16.8743333 497.023667,15.336 500.621,14.626 L500.621,24.211 C496.787,25.0156667 493.497333,25.844 490.752,26.696 L489.332,27.193 L489.332,50.978 L479.818,50.978 Z" id="Path"></path>
            <path d="M524.832,40.328 C519.104667,40.328 514.383167,38.3991667 510.6675,34.5415 C506.951833,30.6838333 505.094,25.8676667 505.094,20.093 C505.094,14.3183333 506.94,9.52583333 510.632,5.7155 C514.324,1.90516667 519.033667,0 524.761,0 C530.488333,0 535.1625,1.9525 538.7835,5.8575 C542.4045,9.7625 544.215,14.5786667 544.215,20.306 C544.215,26.0333333 542.428167,30.8021667 538.8545,34.6125 C535.280833,38.4228333 530.606667,40.328 524.832,40.328 Z M513.827,8.946 C510.939667,12.07 509.496,15.8093333 509.496,20.164 C509.496,24.5186667 510.963333,28.258 513.898,31.382 C516.832667,34.506 520.441833,36.068 524.7255,36.068 C529.009167,36.068 532.594667,34.5178333 535.482,31.4175 C538.369333,28.3171667 539.813,24.5778333 539.813,20.1995 C539.813,15.8211667 538.3575,12.07 535.4465,8.946 C532.5355,5.822 528.938167,4.26 524.6545,4.26 C520.370833,4.26 516.761667,5.822 513.827,8.946 Z M522.915,24.779 L522.915,31.382 L516.099,31.382 L516.099,9.017 L525.755,9.017 C528.216333,9.017 530.180667,9.6205 531.648,10.8275 C533.115333,12.0345 533.849,13.7385 533.849,15.9395 C533.849,18.1405 533.659667,19.7498333 533.281,20.7675 C532.902333,21.7851667 532.192333,22.72 531.151,23.572 L534.062,31.382 L526.962,31.382 L524.974,24.779 L522.915,24.779 Z M522.844,14.129 L522.844,19.738 L524.832,19.738 C526.441333,19.738 527.246,18.8031667 527.246,16.9335 C527.246,15.0638333 526.417667,14.129 524.761,14.129 L522.844,14.129 Z" id="Shape"></path>
        </g>
        <g id="Combined-Shape-Copy" transform="translate(47.000000, 232.107978) rotate(-270.000000) translate(-47.000000, -232.107978) ">
            <use fill="url(#radialGradient-3)" xlink:href="#path-5"></use>
            <use fill="url(#linearGradient-4)" xlink:href="#path-5"></use>
        </g>
    </g>
</svg>